<svg height="512" viewBox="0 0 58 59" width="512" xmlns="http://www.w3.org/2000/svg"><g id="Page-1" fill="none" fill-rule="evenodd"><g id="018---cloud-sync" fill-rule="nonzero"><path id="Shape" d="m21.47 37h-11.79c-5.34 0-9.68-4.67-9.68-10.4s4.34-10.4 9.68-10.4h.2c.79-5.62 5.31-9.95 10.76-9.95.9819732-.00213133 1.958979.13936607 2.9.42 2.3524764-4.07864108 6.6818882-6.61395069 11.39-6.67 6.78 0 12.41 5.37 13.4 12.35 5.48.97 9.67 6.09 9.67 12.24.0318943 3.7218011-1.56891 7.2706161-4.38 9.71z" fill="#90bae1"/><path id="Shape" d="m55 41c.0060778 8.7298578-6.5966905 16.0474297-15.2812545 16.9355751-8.684564.8881455-16.6318537-4.9414338-18.3929756-13.4918083s3.2355964-17.046033 11.5642592-19.6621045c8.3286629-2.6160714 17.2857282 1.4966392 20.7299709 9.5183377.9092262 2.116757 1.3787299 4.3962312 1.38 6.7z" fill="#2980ba"/><path id="Shape" d="m38 59c-9.0052439.0017806-16.6261172-6.6516525-17.8394311-15.5747848-1.213314-8.9231323 4.3543299-17.3698608 13.0330996-19.7726463 8.6787697-2.4027854 17.7977649 1.9778318 21.3463315 10.2544311.9675556 2.2393124 1.4645051 4.6536018 1.46 7.093-.0115721 9.9363282-8.0636718 17.9884279-18 18zm0-34c-7.0722321-.0065095-13.3109905 4.6277479-15.3475344 11.4004134s.6116062 14.0792207 6.5145293 17.9743469c5.9029231 3.8951261 13.6621524 3.4560253 19.0879387-1.0802014 5.4257863-4.5362266 7.2327016-12.0948975 4.4450664-18.5945589-2.5093445-5.8903935-8.2973871-9.7097141-14.7-9.7z" fill="#285680"/><g fill="#fff"><path id="Shape" d="m38 52c-.5522847 0-1-.4477153-1-1s.4477153-1 1-1c4.9682782-.0055111 8.9944889-4.0317218 9-9 0-.5522847.4477153-1 1-1s1 .4477153 1 1c-.0071635 6.0721626-4.9278374 10.9928365-11 11z"/><path id="Shape" d="m28 42c-.5522847 0-1-.4477153-1-1 .0071635-6.0721626 4.9278374-10.9928365 11-11 .5522847 0 .9999999.4477153.9999999 1s-.4477152 1-.9999999 1c-4.9682782.0055111-8.9944889 4.0317218-9 9 0 .5522847-.4477153 1-1 1z"/><path id="Shape" d="m28 43c-.2651948-.0000566-.5195073-.1054506-.707-.293l-3-3c-.3789722-.3923789-.3735524-1.0160848.0121814-1.4018186s1.0094397-.3911536 1.4018186-.0121814l2.293 2.293 2.293-2.293c.3923789-.3789722 1.0160848-.3735524 1.4018186.0121814s.3911536 1.0094397.0121814 1.4018186l-3 3c-.1874927.1875494-.4418052.2929434-.707.293z"/><path id="Shape" d="m51 43c-.2651948-.0000566-.5195073-.1054506-.707-.293l-2.293-2.293-2.293 2.293c-.3923789.3789722-1.0160848.3735524-1.4018186-.0121814s-.3911536-1.0094397-.0121814-1.4018186l3-3c.3904999-.3903819 1.0235001-.3903819 1.414 0l3 3c.2859079.2859943.3714219.7160366.216678 1.0896546-.1547439.3736179-.5192821.6172591-.923678.6173454z"/></g></g></g></svg>